<svg width="48" height="48" viewBox="0 0 48 48" fill="none" xmlns="http://www.w3.org/2000/svg">
<path d="M24 0.703125C11.0938 0.703125 0.703125 11.0938 0.703125 24C0.703125 36.9062 11.0938 47.2969 24 47.2969C36.9062 47.2969 47.2969 36.9062 47.2969 24C47.2969 11.0938 36.9062 0.703125 24 0.703125ZM24 42.7031C13.7188 42.7031 5.29688 34.2812 5.29688 24C5.29688 13.7188 13.7188 5.29688 24 5.29688C34.2812 5.29688 42.7031 13.7188 42.7031 24C42.7031 34.2812 34.2812 42.7031 24 42.7031ZM34.7188 13.7188L19.2969 29.0312L13.2812 23.0156L10 26.2969L19.2969 35.7031L38 17L34.7188 13.7188Z" fill="#2AB863"/>
</svg>
