<svg width="152" height="133" viewBox="0 0 152 133" fill="none" xmlns="http://www.w3.org/2000/svg">
<rect x="6" y="4" width="146" height="129" rx="9" fill="#F2F2F2"/>
<rect x="1" y="1" width="146" height="125" rx="10" stroke="#00EAF9" stroke-width="2"/>
<path d="M66.776 46.104L65.816 69.096H58.856L57.896 46.104H66.776ZM62.456 81.384C61.016 81.384 59.832 80.968 58.904 80.136C58.008 79.272 57.56 78.216 57.56 76.968C57.56 75.688 58.008 74.616 58.904 73.752C59.832 72.888 61.016 72.456 62.456 72.456C63.864 72.456 65.016 72.888 65.912 73.752C66.84 74.616 67.304 75.688 67.304 76.968C67.304 78.216 66.84 79.272 65.912 80.136C65.016 80.968 63.864 81.384 62.456 81.384ZM101.941 54.456V61.704H75.0609V54.456H101.941ZM101.941 66.696V73.944H75.0609V66.696H101.941Z" fill="black"/>
</svg>
