<svg width="152" height="133" viewBox="0 0 152 133" fill="none" xmlns="http://www.w3.org/2000/svg">
<rect x="6" y="4" width="146" height="129" rx="9" fill="#F2F2F2"/>
<rect x="1" y="1" width="146" height="125" rx="10" stroke="#00EAF9" stroke-width="2"/>
<path d="M77.776 46.104L76.816 69.096H69.856L68.896 46.104H77.776ZM73.456 81.384C72.016 81.384 70.832 80.968 69.904 80.136C69.008 79.272 68.56 78.216 68.56 76.968C68.56 75.688 69.008 74.616 69.904 73.752C70.832 72.888 72.016 72.456 73.456 72.456C74.864 72.456 76.016 72.888 76.912 73.752C77.84 74.616 78.304 75.688 78.304 76.968C78.304 78.216 77.84 79.272 76.912 80.136C76.016 80.968 74.864 81.384 73.456 81.384Z" fill="black"/>
</svg>
