<svg width="152" height="133" viewBox="0 0 152 133" fill="none" xmlns="http://www.w3.org/2000/svg">
<rect x="6" y="4" width="146" height="129" rx="9" fill="#F2F2F2"/>
<rect x="1" y="1" width="146" height="125" rx="10" stroke="#00EAF9" stroke-width="2"/>
<path d="M68.752 81L65.632 77.976C62.528 80.344 58.816 81.528 54.496 81.528C51.904 81.528 49.648 81.112 47.728 80.28C45.808 79.416 44.32 78.216 43.264 76.68C42.24 75.112 41.728 73.288 41.728 71.208C41.728 69.096 42.288 67.192 43.408 65.496C44.56 63.768 46.272 62.36 48.544 61.272C47.712 60.248 47.12 59.272 46.768 58.344C46.416 57.384 46.24 56.344 46.24 55.224C46.24 53.624 46.656 52.168 47.488 50.856C48.32 49.544 49.52 48.52 51.088 47.784C52.688 47.016 54.576 46.632 56.752 46.632C58.96 46.632 60.832 47.032 62.368 47.832C63.904 48.632 65.056 49.704 65.824 51.048C66.592 52.392 66.944 53.864 66.88 55.464H59.152C59.184 54.6 58.96 53.944 58.48 53.496C58.032 53.016 57.424 52.776 56.656 52.776C55.888 52.776 55.248 53 54.736 53.448C54.224 53.896 53.968 54.472 53.968 55.176C53.968 55.848 54.176 56.552 54.592 57.288C55.04 58.024 55.728 58.872 56.656 59.832L64.864 67.848C64.928 67.688 65.008 67.496 65.104 67.272C65.232 67.048 65.36 66.792 65.488 66.504L67.264 63.48H75.472L73.168 67.656C72.304 69.544 71.312 71.336 70.192 73.032L78.304 81H68.752ZM54.88 74.904C57.024 74.904 58.928 74.296 60.592 73.08L53.104 65.832C50.8 67.016 49.648 68.616 49.648 70.632C49.648 71.848 50.112 72.872 51.04 73.704C52 74.504 53.28 74.904 54.88 74.904ZM107.049 81L103.929 77.976C100.825 80.344 97.1129 81.528 92.7929 81.528C90.2009 81.528 87.9449 81.112 86.0249 80.28C84.1049 79.416 82.6169 78.216 81.5609 76.68C80.5369 75.112 80.0249 73.288 80.0249 71.208C80.0249 69.096 80.5849 67.192 81.7049 65.496C82.8569 63.768 84.5689 62.36 86.8409 61.272C86.0089 60.248 85.4169 59.272 85.0649 58.344C84.7129 57.384 84.5369 56.344 84.5369 55.224C84.5369 53.624 84.9529 52.168 85.7849 50.856C86.6169 49.544 87.8169 48.52 89.3849 47.784C90.9849 47.016 92.8729 46.632 95.0489 46.632C97.2569 46.632 99.1289 47.032 100.665 47.832C102.201 48.632 103.353 49.704 104.121 51.048C104.889 52.392 105.241 53.864 105.177 55.464H97.4489C97.4809 54.6 97.2569 53.944 96.7769 53.496C96.3289 53.016 95.7209 52.776 94.9529 52.776C94.1849 52.776 93.5449 53 93.0329 53.448C92.5209 53.896 92.2649 54.472 92.2649 55.176C92.2649 55.848 92.4729 56.552 92.8889 57.288C93.3369 58.024 94.0249 58.872 94.9529 59.832L103.161 67.848C103.225 67.688 103.305 67.496 103.401 67.272C103.529 67.048 103.657 66.792 103.785 66.504L105.561 63.48H113.769L111.465 67.656C110.601 69.544 109.609 71.336 108.489 73.032L116.601 81H107.049ZM93.1769 74.904C95.3209 74.904 97.2249 74.296 98.8889 73.08L91.4009 65.832C89.0969 67.016 87.9449 68.616 87.9449 70.632C87.9449 71.848 88.4089 72.872 89.3369 73.704C90.2969 74.504 91.5769 74.904 93.1769 74.904Z" fill="#1A1827"/>
</svg>
